{
   "accessors" : [
      {
         "bufferView" : 0,
         "byteOffset" : 0,
         "componentType" : 5123,
         "count" : 1050,
         "max" : [ 329 ],
         "min" : [ 0 ],
         "name" : "buffer-0-group-0-mesh-0-indices",
         "type" : "SCALAR"
      },
      {
         "bufferView" : 1,
         "byteOffset" : 0,
         "componentType" : 5126,
         "count" : 330,
         "max" : [ 0.8198519945144653, 1.218958973884583, 0.1399269998073578 ],
         "min" : [ -0.8198519945144653, 1.036463975906372, -0.05597800016403198 ],
         "name" : "buffer-0-group-0-mesh-0-position",
         "type" : "VEC3"
      },
      {
         "bufferView" : 1,
         "byteOffset" : 3960,
         "componentType" : 5126,
         "count" : 330,
         "max" : [ 0.9214754700660706, 0.9214816689491272, 0.9639075398445129 ],
         "min" : [ -0.9214754700660706, -0.9896894693374634, -0.9965621829032898 ],
         "name" : "buffer-0-group-0-mesh-0-normal",
         "type" : "VEC3"
      },
      {
         "bufferView" : 2,
         "byteOffset" : 0,
         "componentType" : 5126,
         "count" : 330,
         "max" : [ 0.7851150035858154, -1.107249975204468 ],
         "min" : [ 0.123879000544548, -1.987894058227539 ],
         "name" : "buffer-0-group-0-mesh-0-texcoord",
         "type" : "VEC2"
      },
      {
         "bufferView" : 0,
         "byteOffset" : 2100,
         "componentType" : 5123,
         "count" : 1050,
         "max" : [ 329 ],
         "min" : [ 0 ],
         "name" : "buffer-0-group-1-mesh-0-indices",
         "type" : "SCALAR"
      },
      {
         "bufferView" : 1,
         "byteOffset" : 7920,
         "componentType" : 5126,
         "count" : 330,
         "max" : [ 0.7136240005493164, 1.218958973884583, 0.1137399971485138 ],
         "min" : [ -0.7136240005493164, 0.9817209839820862, -0.06099800020456314 ],
         "name" : "buffer-0-group-1-mesh-0-position",
         "type" : "VEC3"
      },
      {
         "bufferView" : 1,
         "byteOffset" : 11880,
         "componentType" : 5126,
         "count" : 330,
         "max" : [ 0.9865443706512451, 0.780759871006012, 0.9736689925193787 ],
         "min" : [ -0.9865442514419556, -0.9582757353782654, -0.9944202899932861 ],
         "name" : "buffer-0-group-1-mesh-0-normal",
         "type" : "VEC3"
      },
      {
         "bufferView" : 2,
         "byteOffset" : 2640,
         "componentType" : 5126,
         "count" : 330,
         "max" : [ 0.7851150035858154, -1.107249975204468 ],
         "min" : [ 0.123879000544548, -1.987894058227539 ],
         "name" : "buffer-0-group-1-mesh-0-texcoord",
         "type" : "VEC2"
      },
      {
         "bufferView" : 0,
         "byteOffset" : 4200,
         "componentType" : 5123,
         "count" : 6474,
         "max" : [ 1364 ],
         "min" : [ 0 ],
         "name" : "buffer-0-group-2-mesh-0-indices",
         "type" : "SCALAR"
      },
      {
         "bufferView" : 1,
         "byteOffset" : 15840,
         "componentType" : 5126,
         "count" : 1365,
         "max" : [ 0.6246820092201233, 2.032232999801636, 0.2737700045108795 ],
         "min" : [ -0.6246820092201233, 0.0377190001308918, -0.168506994843483 ],
         "name" : "buffer-0-group-2-mesh-0-position",
         "type" : "VEC3"
      },
      {
         "bufferView" : 1,
         "byteOffset" : 32220,
         "componentType" : 5126,
         "count" : 1365,
         "max" : [ 0.9993314146995544, 0.9953203201293945, 0.9999425411224365 ],
         "min" : [ -0.9993317127227783, -0.9999999403953552, -0.9998912811279297 ],
         "name" : "buffer-0-group-2-mesh-0-normal",
         "type" : "VEC3"
      },
      {
         "bufferView" : 2,
         "byteOffset" : 5280,
         "componentType" : 5126,
         "count" : 1365,
         "max" : [ 0.9972969889640808, -1.002689003944397 ],
         "min" : [ 0.003093000035732985, -1.996255040168762 ],
         "name" : "buffer-0-group-2-mesh-0-texcoord",
         "type" : "VEC2"
      }
   ],
   "asset" : {
      "extras" : {
         "GOOGLE_processor_version" : 294144208
      },
      "generator" : "Obj2GltfConverter",
      "version" : "2.0"
   },
   "bufferViews" : [
      {
         "buffer" : 0,
         "byteLength" : 17148,
         "byteOffset" : 0,
         "name" : "buffer-0-bufferview-ushort",
         "target" : 34963
      },
      {
         "buffer" : 0,
         "byteLength" : 48600,
         "byteOffset" : 17148,
         "byteStride" : 12,
         "name" : "buffer-0-bufferview-vec3",
         "target" : 34962
      },
      {
         "buffer" : 0,
         "byteLength" : 16200,
         "byteOffset" : 65752,
         "byteStride" : 8,
         "name" : "buffer-0-bufferview-vec2",
         "target" : 34962
      }
   ],
   "buffers" : [
      {
         "byteLength" : 81952,
         "name" : "buffer-0",
         "uri" : "M-FF_iOS_HERO_Tony_Stark_Iron_Man_Civil_War.bin"
      }
   ],
   "cameras" : [
      {
         "perspective" : {
            "yfov" : 0.7853981633974483,
            "znear" : 0.1000000014901161
         },
         "type" : "perspective"
      }
   ],
   "extensions" : {
      "KHR_lights_punctual" : {
         "lights" : [
            {
               "color" : [ 1, 0.9333333333333333, 0.8666666666666667 ],
               "intensity" : 0.25,
               "name" : "headLight",
               "type" : "directional"
            },
            {
               "color" : [ 1, 0.9333333333333333, 0.8666666666666667 ],
               "intensity" : 0.324999988079071,
               "name" : "keyLight",
               "type" : "directional"
            }
         ]
      }
   },
   "extensionsUsed" : [ "GOOGLE_backgrounds", "GOOGLE_camera_settings", "KHR_lights_punctual" ],
   "extras" : {
      "GOOGLE_initial_camera_motion" : {
         "motionPath" : "FULL_ROTATION"
      },
      "GOOGLE_lighting_rig" : {
         "disableShadows" : false
      }
   },
   "images" : [
      {
         "mimeType" : "image/png",
         "name" : "MFF_iOS_HER_TST_CWA_W-diffuse-image",
         "uri" : "M-FF_iOS_HERO_Tony_Stark_Iron_Man_Civil_War/M-FF_iOS_HERO_Tony_Stark_Iron_Man_Civil_War_Body_D.png"
      },
      {
         "mimeType" : "image/png",
         "name" : "MFF_iOS_HER_TST_CWA_A-diffuse-image",
         "uri" : "M-FF_iOS_HERO_Tony_Stark_Iron_Man_Civil_War/M-FF_iOS_HERO_Tony_Stark_Iron_Man_Civil_War_Body_D.png"
      },
      {
         "mimeType" : "image/png",
         "name" : "MFF_iOS_HER_TST_CWA_B-diffuse-image",
         "uri" : "M-FF_iOS_HERO_Tony_Stark_Iron_Man_Civil_War/M-FF_iOS_HERO_Tony_Stark_Iron_Man_Civil_War_Body_D.png"
      }
   ],
   "materials" : [
      {
         "alphaMode" : "OPAQUE",
         "doubleSided" : true,
         "name" : "MFF_iOS_HER_TST_CWA_W",
         "pbrMetallicRoughness" : {
            "baseColorFactor" : [ 0.64, 0.64, 0.64, 1 ],
            "baseColorTexture" : {
               "index" : 0,
               "texCoord" : 0
            },
            "metallicFactor" : 0,
            "roughnessFactor" : 0.7448017359246658
         }
      },
      {
         "alphaMode" : "OPAQUE",
         "doubleSided" : true,
         "name" : "MFF_iOS_HER_TST_CWA_A",
         "pbrMetallicRoughness" : {
            "baseColorFactor" : [ 0.64, 0.64, 0.64, 1 ],
            "baseColorTexture" : {
               "index" : 1,
               "texCoord" : 0
            },
            "metallicFactor" : 0,
            "roughnessFactor" : 0.7448017359246658
         }
      },
      {
         "alphaMode" : "OPAQUE",
         "doubleSided" : true,
         "name" : "MFF_iOS_HER_TST_CWA_B",
         "pbrMetallicRoughness" : {
            "baseColorFactor" : [ 0.64, 0.64, 0.64, 1 ],
            "baseColorTexture" : {
               "index" : 2,
               "texCoord" : 0
            },
            "metallicFactor" : 0,
            "roughnessFactor" : 0.7448017359246658
         }
      }
   ],
   "meshes" : [
      {
         "name" : "buffer-0-mesh-0",
         "primitives" : [
            {
               "attributes" : {
                  "NORMAL" : 2,
                  "POSITION" : 1,
                  "TEXCOORD_0" : 3
               },
               "indices" : 0,
               "material" : 0,
               "mode" : 4
            },
            {
               "attributes" : {
                  "NORMAL" : 6,
                  "POSITION" : 5,
                  "TEXCOORD_0" : 7
               },
               "indices" : 4,
               "material" : 1,
               "mode" : 4
            },
            {
               "attributes" : {
                  "NORMAL" : 10,
                  "POSITION" : 9,
                  "TEXCOORD_0" : 11
               },
               "indices" : 8,
               "material" : 2,
               "mode" : 4
            }
         ]
      }
   ],
   "nodes" : [
      {
         "mesh" : 0,
         "name" : "node-0"
      },
      {
         "children" : [ 2 ]
      },
      {
         "children" : [ 3 ],
         "extras" : {
            "isTransformNode" : 1
         },
         "translation" : [ -0.004912831674420261, 1.121141874556356, 0.01703865006274091 ]
      },
      {
         "children" : [ 0 ],
         "translation" : [ 0.004912831674420261, -1.121141874556356, -0.01703865006274091 ]
      },
      {
         "camera" : 0,
         "children" : [ 5 ],
         "rotation" : [
            -2.402669524328621e-16,
            -1.010676499686894e-15,
            -2.428321624752827e-31,
            1
         ],
         "translation" : [ -0.004912865210928584, 1.121680785874791, 3.251809595758521 ]
      },
      {
         "extensions" : {
            "KHR_lights_punctual" : {
               "light" : 0
            }
         },
         "extras" : {
            "isHeadLight" : 1
         },
         "name" : "headLightNode",
         "translation" : [ -1.31966158074434, 0.6598307903721699, 0.6598307903721699 ]
      },
      {
         "extensions" : {
            "KHR_lights_punctual" : {
               "light" : 1
            }
         },
         "extras" : {
            "isKeyLight" : 1
         },
         "name" : "keyLightNode",
         "rotation" : [ -0.7505326882858236, -0.3752663441429118, 0, 0.5439447166468927 ],
         "scale" : [ 0, 0, 1.332858196551783 ],
         "translation" : [ -1.332945251176214, 3.857366016412587, -1.309261051383718 ]
      }
   ],
   "samplers" : [
      {
         "name" : "MFF_iOS_HER_TST_CWA_W-diffuse-sampler",
         "wrapS" : 10497,
         "wrapT" : 10497
      },
      {
         "name" : "MFF_iOS_HER_TST_CWA_A-diffuse-sampler",
         "wrapS" : 10497,
         "wrapT" : 10497
      },
      {
         "name" : "MFF_iOS_HER_TST_CWA_B-diffuse-sampler",
         "wrapS" : 10497,
         "wrapT" : 10497
      }
   ],
   "scene" : 0,
   "scenes" : [
      {
         "extensions" : {
            "GOOGLE_backgrounds" : {
               "color" : [ 0.9333333333333333, 0.9333333333333333, 0.9333333333333333 ]
            },
            "GOOGLE_camera_settings" : {
               "pivot" : [ 0, 0, 0 ]
            }
         },
         "extras" : {
            "GOOGLE_camera_index" : {
               "cameraIndex" : 0,
               "nodeIndex" : 4
            },
            "GOOGLE_geometry_data" : {
               "stats" : {
                  "centroid" : [ -8.705462443102101e-05, 1.191649623309021, 0.02359714516806474 ],
                  "radius" : 1.31966158074434,
                  "stdev" : 0.6698977961419472
               },
               "visualCenterPoint" : [ -0.004912831674420261, 1.121141874556356, 0.01703865006274091 ]
            },
            "GOOGLE_hemi_light" : {
               "groundColor" : [ 0.9333333333333333, 0.9333333333333333, 0.9333333333333333 ]
            }
         },
         "name" : "scene-0",
         "nodes" : [ 1, 4, 6 ]
      }
   ],
   "textures" : [
      {
         "name" : "MFF_iOS_HER_TST_CWA_W-diffuse-texture",
         "sampler" : 0,
         "source" : 0
      },
      {
         "name" : "MFF_iOS_HER_TST_CWA_A-diffuse-texture",
         "sampler" : 1,
         "source" : 1
      },
      {
         "name" : "MFF_iOS_HER_TST_CWA_B-diffuse-texture",
         "sampler" : 2,
         "source" : 2
      }
   ]
}
